<svg class="app-icon " width="20px" height="20px" viewBox="0 0 1024 1024" xmlns="http://www.w3.org/2000/svg" style="display: inline-block; vertical-align: middle;"><path d="M307.2 409.6v358.4h409.6v-358.4c0-113.108-91.692-204.8-204.8-204.8s-204.8 91.692-204.8 204.8v0zM411.136 119.296c-0.815-4.852-1.28-10.442-1.28-16.14 0-56.554 45.846-102.4 102.4-102.4s102.4 45.846 102.4 102.4c0 5.699-0.465 11.288-1.361 16.734l0.081-0.593c120.875 43.156 205.824 156.653 205.824 289.991 0 0.11-0 0.22-0 0.33l0-0.017v307.2l153.6 102.4v51.2h-921.6v-51.2l153.6-102.4v-307.2c-0-0.040-0-0.087-0-0.135 0-133.528 85.193-247.159 204.189-289.503l2.147-0.666zM614.4 921.6c0 56.554-45.846 102.4-102.4 102.4s-102.4-45.846-102.4-102.4v0h204.8z" style="fill: rgb(157, 157, 157);"></path></svg>